Coordinates
version=1
nRows=17
nColumns=63
inDegrees=yes

Units are S.I. units (second, meters, Newtons, ...)
If the header above contains a line with 'inDegrees', this indicates whether rotational values are in degrees (yes) or radians (no).

endheader
time	pelvis_tilt	pelvis_list	pelvis_rotation	pelvis_tx	pelvis_ty	pelvis_tz	hip_flexion_r	hip_adduction_r	hip_rotation_r	knee_angle_r	knee_angle_r_beta	ankle_angle_r	subtalar_angle_r	mtp_angle_r	hip_flexion_l	hip_adduction_l	hip_rotation_l	knee_angle_l	knee_angle_l_beta	ankle_angle_l	subtalar_angle_l	mtp_angle_l	L5_S1_Flex_Ext	L5_S1_Lat_Bending	L5_S1_axial_rotation	L4_L5_Flex_Ext	L4_L5_Lat_Bending	L4_L5_axial_rotation	L3_L4_Flex_Ext	L3_L4_Lat_Bending	L3_L4_axial_rotation	L2_L3_Flex_Ext	L2_L3_Lat_Bending	L2_L3_axial_rotation	L1_L2_Flex_Ext	L1_L2_Lat_Bending	L1_L2_axial_rotation	L1_T12_Flex_Ext	L1_T12_Lat_Bending	L1_T12_axial_rotation	Abs_r3	Abs_r2	Abs_r1	Abs_t1	Abs_t2	neck_flexion	neck_bending	neck_rotation	arm_flex_r	arm_add_r	arm_rot_r	elbow_flex_r	pro_sup_r	wrist_flex_r	wrist_dev_r	arm_flex_l	arm_add_l	arm_rot_l	elbow_flex_l	pro_sup_l	wrist_flex_l	wrist_dev_l
2.327586	-5.037333	-17.396769	86.827406	0.111468	0.923405	0.298003	20.359083	-1.958757	-11.059504	14.122838	0.246490	15.278553	-0.017974	0.000000	17.146197	3.822520	0.707778	6.837200	0.119332	2.557909	-14.748655	0.000000	-0.127765	-0.466246	-1.194807	-0.237272	-0.620107	-1.269482	-0.209905	-1.133631	-1.269482	-0.146022	-1.133631	-1.045456	-0.118642	-0.950769	-0.970780	-0.073005	-0.722215	-0.896105	-0.912611	-5.274270	-6.645156	0.000000	0.000000	3.006216	2.860500	15.428123	19.321140	-20.084659	36.019099	120.569390	80.818756	-0.233893	32.279032	11.090076	-26.477742	23.593354	99.826841	89.534229	-2.927721	12.262415
2.344828	-4.575933	-16.552017	87.302747	0.110266	0.927469	0.295672	19.300532	-1.696878	-11.445300	13.892559	0.242471	14.581168	-0.019785	0.000000	15.953469	3.507652	0.696111	6.599099	0.115176	2.334020	-13.800317	0.000000	-0.126343	-0.410664	-1.141095	-0.234632	-0.546183	-1.212413	-0.207569	-0.998488	-1.212413	-0.144398	-0.998488	-0.998458	-0.117322	-0.837426	-0.927140	-0.072193	-0.636118	-0.855821	-0.902457	-4.645511	-6.346428	0.000000	0.000000	1.714900	2.615949	16.201706	19.537294	-21.029088	37.816713	121.775611	80.367415	-1.991320	32.397945	14.077326	-27.602861	26.204565	102.575882	89.534837	-0.191358	12.723087
2.362069	-4.227979	-15.748320	87.749346	0.109226	0.931037	0.293812	18.392288	-1.530018	-11.716290	13.853543	0.241790	13.954801	-0.201030	0.000000	14.915453	3.267441	0.647104	6.543450	0.114205	2.138270	-12.878401	0.000000	-0.124131	-0.371826	-1.065137	-0.230524	-0.494529	-1.131708	-0.203935	-0.904058	-1.131708	-0.141869	-0.904058	-0.931995	-0.115268	-0.758228	-0.865424	-0.070928	-0.575959	-0.798853	-0.886656	-4.206173	-5.923972	0.000000	0.000000	0.504384	2.411155	16.663310	19.767434	-21.653217	39.208788	122.728221	79.893669	-3.952359	32.273492	17.369367	-28.721476	29.210087	104.621484	89.442619	2.583661	13.039750
2.379310	-3.963872	-14.979257	88.183613	0.108281	0.934105	0.292363	17.590413	-1.444740	-11.923800	13.964063	0.243719	13.427160	-0.517618	0.000000	14.001139	3.093297	0.627895	6.641992	0.115925	1.951072	-12.060972	0.000000	-0.122347	-0.344636	-0.970489	-0.227211	-0.458365	-1.031145	-0.201004	-0.837947	-1.031145	-0.139831	-0.837947	-0.849178	-0.113612	-0.702781	-0.788522	-0.069909	-0.533841	-0.727867	-0.873914	-3.898588	-5.397569	0.000000	0.000000	-0.628879	2.206716	16.848811	20.030432	-21.984491	40.122477	123.365355	79.164118	-5.941184	31.851687	20.833007	-29.781584	32.398258	106.258840	88.796263	5.028582	13.432118
2.396552	-3.764043	-14.255100	88.585191	0.107411	0.936696	0.291235	16.882151	-1.427133	-12.116564	14.189173	0.247648	13.005137	-0.865424	0.000000	13.193939	2.968281	0.660473	6.853301	0.119613	1.740359	-11.383829	0.000000	-0.117914	-0.325000	-0.866071	-0.218979	-0.432250	-0.920201	-0.193722	-0.790205	-0.920201	-0.134764	-0.790205	-0.757812	-0.109495	-0.662740	-0.703683	-0.067376	-0.503425	-0.649553	-0.842251	-3.676463	-4.816828	0.000000	0.000000	-1.711834	1.967043	16.828032	20.347512	-22.035952	40.574836	123.674006	78.624612	-7.988906	31.172696	24.197707	-30.704035	35.376993	107.660157	88.320989	7.455392	13.915788
2.413793	-3.624325	-13.568448	88.954240	0.106619	0.938821	0.290375	16.241199	-1.465774	-12.293944	14.498955	0.253055	12.688647	-1.229796	0.000000	12.467337	2.889732	0.752625	7.145845	0.124719	1.505745	-10.858146	0.000000	-0.113510	-0.313239	-0.756945	-0.210799	-0.416608	-0.804254	-0.186485	-0.761610	-0.804254	-0.129730	-0.761610	-0.662327	-0.105405	-0.638757	-0.615018	-0.064859	-0.485208	-0.567709	-0.810788	-3.543425	-4.209902	0.000000	0.000000	-2.711086	1.723189	16.590538	20.712942	-21.878056	40.534302	123.682449	77.867451	-9.822045	30.309239	27.481691	-31.472190	38.267440	108.951096	87.242845	9.307567	14.522695
2.431034	-3.516852	-12.920066	89.281756	0.105852	0.940521	0.289711	15.650301	-1.534049	-12.474891	14.858384	0.259328	12.465892	-1.560353	0.000000	11.807043	2.834742	0.894905	7.498453	0.130873	1.280069	-10.462874	0.000000	-0.110572	-0.305670	-0.646563	-0.205343	-0.406541	-0.686973	-0.181658	-0.743206	-0.686973	-0.126372	-0.743206	-0.565743	-0.102677	-0.623322	-0.525332	-0.063181	-0.473483	-0.484922	-0.789802	-3.457801	-3.595989	0.000000	0.000000	-3.595239	1.476532	16.132623	21.126216	-21.593597	39.992949	123.442546	76.807846	-11.208662	29.389330	30.610995	-32.038115	41.022058	110.161762	85.351087	10.520645	15.170013
2.448276	-3.432113	-12.329903	89.586589	0.105052	0.941854	0.289166	15.106150	-1.630249	-12.722052	15.222305	0.265679	12.320949	-1.777699	0.000000	11.216208	2.806872	1.152370	7.873093	0.137411	1.009878	-10.278506	0.000000	-0.107276	-0.300232	-0.550656	-0.199222	-0.399308	-0.585071	-0.176243	-0.729983	-0.585071	-0.122605	-0.729983	-0.481824	-0.099616	-0.612232	-0.447408	-0.061297	-0.465059	-0.412992	-0.766259	-3.396280	-3.062581	0.000000	0.000000	-4.370637	1.198138	15.544943	21.604285	-21.219268	39.030164	122.994448	75.708350	-12.083846	28.409991	33.457398	-32.426797	43.496180	111.337704	82.995519	11.142268	15.836059
2.465517	-3.376301	-11.805457	89.804766	0.104317	0.942842	0.288701	14.630179	-1.729625	-12.900846	15.582744	0.271970	12.240966	-1.950151	0.000000	10.697093	2.790761	1.390575	8.260489	0.144173	0.767701	-10.182943	0.000000	-0.103116	-0.298459	-0.454158	-0.191497	-0.396950	-0.482542	-0.169410	-0.725673	-0.482542	-0.117852	-0.725673	-0.397388	-0.095754	-0.608617	-0.369003	-0.058921	-0.462313	-0.340618	-0.736549	-3.376227	-2.525888	0.000000	0.000000	-5.013225	0.930608	14.800104	22.092085	-20.812381	37.637235	122.416509	74.291445	-12.446668	27.421890	36.036361	-32.673059	45.758771	112.429252	79.966932	11.139353	16.351120
2.482759	-3.333468	-11.322376	89.977553	0.103572	0.943585	0.288280	14.179430	-1.844177	-13.142934	15.910813	0.277696	12.244936	-1.929950	0.000000	10.213419	2.793458	1.694212	8.629643	0.150616	0.514718	-10.264201	0.000000	-0.102892	-0.298342	-0.373214	-0.191081	-0.396794	-0.396539	-0.169042	-0.725388	-0.396539	-0.117596	-0.725388	-0.326562	-0.095546	-0.608378	-0.303236	-0.058793	-0.462131	-0.279910	-0.734949	-3.374899	-2.075702	0.000000	0.000000	-5.552609	0.677366	14.014638	22.627110	-20.402090	35.936430	121.715839	72.330939	-12.372350	26.538352	38.291832	-32.836062	47.767216	113.476701	76.194984	10.353512	16.669319
2.500000	-3.310065	-10.883697	90.068059	0.102897	0.944115	0.287899	13.769496	-1.951930	-13.308859	16.200336	0.282749	12.315385	-1.844802	0.000000	9.774203	2.802894	1.938147	8.983846	0.156798	0.313872	-10.386636	0.000000	-0.104730	-0.301300	-0.292371	-0.194494	-0.400729	-0.310644	-0.172061	-0.732581	-0.310644	-0.119696	-0.732581	-0.255825	-0.097252	-0.614411	-0.237552	-0.059843	-0.466714	-0.219278	-0.748075	-3.408368	-1.626081	0.000000	0.000000	-6.033536	0.488313	13.193280	23.132608	-20.021849	33.969009	120.967087	69.619355	-12.064637	25.759391	40.257629	-32.940663	49.505477	114.426975	72.186946	9.105958	16.996634
2.517241	-3.298048	-10.476912	90.082418	0.102268	0.944496	0.287537	13.386558	-2.050145	-13.405205	16.445392	0.287026	12.448637	-1.686535	0.000000	9.363494	2.821228	2.153652	9.308847	0.162470	0.151749	-10.615063	0.000000	-0.109173	-0.306137	-0.210921	-0.202746	-0.407163	-0.224104	-0.179361	-0.744342	-0.224104	-0.124774	-0.744342	-0.184556	-0.101378	-0.624275	-0.171374	-0.062382	-0.474207	-0.158191	-0.779814	-3.463086	-1.173082	0.000000	0.000000	-6.500775	0.366481	12.370301	23.596798	-19.696684	31.826807	120.192710	66.481968	-11.481417	25.118733	41.956758	-33.042490	51.033065	115.288612	67.939001	7.389554	17.339112
2.534483	-3.297609	-10.101768	90.049467	0.101698	0.944754	0.287217	13.038246	-2.133412	-13.394164	16.656847	0.290717	12.631072	-1.554455	0.000000	8.992056	2.846330	2.333599	9.611051	0.167744	0.065133	-10.881931	0.000000	-0.115440	-0.313879	-0.130059	-0.214384	-0.417459	-0.138188	-0.189656	-0.763165	-0.138188	-0.131936	-0.763165	-0.113802	-0.107198	-0.640061	-0.105673	-0.065962	-0.486198	-0.097544	-0.824576	-3.550658	-0.723351	0.000000	0.000000	-6.989037	0.375410	11.611405	24.009285	-19.432513	29.640550	119.427667	63.127862	-10.746117	24.595552	43.449202	-33.135696	52.321583	116.054411	63.781655	5.570930	18.061030
2.551724	-3.283144	-9.757935	89.999900	0.101136	0.944926	0.286941	12.723701	-2.179697	-13.286232	16.835943	0.293843	12.829708	-1.499339	0.000000	8.664381	2.853226	2.441842	9.888946	0.172595	0.090305	-11.082879	0.000000	-0.123181	-0.320814	-0.055904	-0.228759	-0.426683	-0.059398	-0.202374	-0.780027	-0.059398	-0.140783	-0.780027	-0.048916	-0.114386	-0.654204	-0.045422	-0.070385	-0.496941	-0.041928	-0.879868	-3.629112	-0.310921	0.000000	0.000000	-7.502507	0.474274	10.961325	24.392706	-19.262353	27.608681	118.703801	59.734524	-10.005409	24.124927	44.694056	-33.217797	53.319962	116.721221	59.892508	3.842437	19.166207
2.568966	-3.241446	-9.441859	89.960324	0.100553	0.945039	0.286683	12.435655	-2.183354	-13.125875	16.982445	0.296400	13.027472	-1.518750	0.000000	8.375381	2.835627	2.504989	10.135331	0.176895	0.240046	-11.207135	0.000000	-0.132943	-0.325561	0.007936	-0.246889	-0.432996	0.008432	-0.218413	-0.791568	0.008432	-0.151941	-0.791568	0.006944	-0.123451	-0.663883	0.006448	-0.075964	-0.504294	0.005952	-0.949601	-3.682808	0.044135	0.000000	0.000000	-8.019305	0.659059	10.440811	24.739103	-19.197355	25.860215	118.058503	56.442778	-9.296588	23.719892	45.689775	-33.286793	54.068832	117.297057	56.382055	2.247450	20.471575
2.586207	-3.168786	-9.170327	89.882119	0.099970	0.945097	0.286394	12.197515	-2.137401	-12.899218	17.101664	0.298480	13.208729	-1.566221	0.000000	8.120926	2.793112	2.522733	10.318348	0.180089	0.495741	-11.331319	0.000000	-0.141543	-0.327319	0.073888	-0.262859	-0.435334	0.078506	-0.232541	-0.795843	0.078506	-0.161769	-0.795843	0.064652	-0.131437	-0.667468	0.060034	-0.080878	-0.507017	0.055416	-1.011027	-3.702695	0.410942	0.000000	0.000000	-8.502188	0.884935	10.004966	25.010453	-19.248265	24.454212	117.551606	53.426617	-8.641724	23.474332	46.409272	-33.288454	54.536736	117.771688	53.700010	1.077672	21.808423
2.603448	-3.057886	-8.934209	89.849881	0.099315	0.945120	0.286067	11.995766	-2.047438	-12.679190	17.204567	0.300276	13.365291	-1.696092	0.000000	7.912440	2.713377	2.463732	10.471979	0.182771	0.905237	-11.245351	0.000000	-0.151985	-0.325636	0.119136	-0.282250	-0.433096	0.126582	-0.249695	-0.791752	0.126582	-0.173703	-0.791752	0.104244	-0.141133	-0.664037	0.096798	-0.086844	-0.504410	0.089352	-1.085610	-3.683660	0.662597	0.000000	0.000000	-8.901689	1.134626	9.700181	25.254039	-19.402682	23.512205	117.200593	50.751852	-8.136829	23.292147	46.905196	-33.291722	54.846165	118.193716	51.283222	0.166532	22.973580
